<mxfile host="app.diagrams.net" modified="2021-06-13T08:36:52.800Z" agent="5.0 (Windows NT 10.0; WOW64) AppleWebKit/537.36 (KHTML, like Gecko) Chrome/69.0.3947.100 Safari/537.36" etag="vzufd5EjyRT3mFMFy-5i" version="14.7.7" type="github">
  <diagram id="Ukvdv8pUKuIDpFar4Her" name="Page-1">
    <mxGraphModel dx="972" dy="600" grid="1" gridSize="10" guides="1" tooltips="1" connect="1" arrows="1" fold="1" page="1" pageScale="1" pageWidth="827" pageHeight="1169" math="0" shadow="0">
      <root>
        <mxCell id="0" />
        <mxCell id="1" parent="0" />
        <mxCell id="cHNkLDPj2TJlFuEHYzCz-140" value="" style="rounded=0;whiteSpace=wrap;html=1;" vertex="1" parent="1">
          <mxGeometry x="10" y="30" width="940" height="470" as="geometry" />
        </mxCell>
        <mxCell id="cHNkLDPj2TJlFuEHYzCz-1" value="" style="rounded=0;whiteSpace=wrap;html=1;" vertex="1" parent="1">
          <mxGeometry x="280" y="180" width="40" height="30" as="geometry" />
        </mxCell>
        <mxCell id="cHNkLDPj2TJlFuEHYzCz-2" value="" style="rounded=0;whiteSpace=wrap;html=1;" vertex="1" parent="1">
          <mxGeometry x="280" y="320" width="40" height="30" as="geometry" />
        </mxCell>
        <mxCell id="cHNkLDPj2TJlFuEHYzCz-3" value="Input" style="text;html=1;resizable=0;autosize=1;align=center;verticalAlign=middle;points=[];fillColor=none;strokeColor=none;rounded=0;" vertex="1" parent="1">
          <mxGeometry x="40" y="240" width="40" height="20" as="geometry" />
        </mxCell>
        <mxCell id="cHNkLDPj2TJlFuEHYzCz-36" style="edgeStyle=orthogonalEdgeStyle;rounded=0;orthogonalLoop=1;jettySize=auto;html=1;exitX=0;exitY=0;exitDx=20;exitDy=10;exitPerimeter=0;entryX=0.5;entryY=0;entryDx=0;entryDy=0;fillColor=#ffe6cc;strokeColor=#d79b00;" edge="1" parent="1" source="cHNkLDPj2TJlFuEHYzCz-4" target="cHNkLDPj2TJlFuEHYzCz-1">
          <mxGeometry relative="1" as="geometry">
            <Array as="points">
              <mxPoint x="110" y="160" />
              <mxPoint x="300" y="160" />
            </Array>
          </mxGeometry>
        </mxCell>
        <mxCell id="cHNkLDPj2TJlFuEHYzCz-41" style="edgeStyle=orthogonalEdgeStyle;rounded=0;orthogonalLoop=1;jettySize=auto;html=1;exitX=0;exitY=0;exitDx=25;exitDy=80;exitPerimeter=0;entryX=0.5;entryY=1;entryDx=0;entryDy=0;fillColor=#f5f5f5;strokeColor=#666666;" edge="1" parent="1" source="cHNkLDPj2TJlFuEHYzCz-4" target="cHNkLDPj2TJlFuEHYzCz-2">
          <mxGeometry relative="1" as="geometry" />
        </mxCell>
        <mxCell id="cHNkLDPj2TJlFuEHYzCz-4" value="" style="shape=cube;whiteSpace=wrap;html=1;boundedLbl=1;backgroundOutline=1;darkOpacity=0.05;darkOpacity2=0.1;" vertex="1" parent="1">
          <mxGeometry x="90" y="210" width="30" height="80" as="geometry" />
        </mxCell>
        <mxCell id="cHNkLDPj2TJlFuEHYzCz-37" style="edgeStyle=orthogonalEdgeStyle;rounded=0;orthogonalLoop=1;jettySize=auto;html=1;exitX=0;exitY=0;exitDx=20;exitDy=10;exitPerimeter=0;entryX=0.5;entryY=0;entryDx=0;entryDy=0;fillColor=#ffe6cc;strokeColor=#d79b00;" edge="1" parent="1" source="cHNkLDPj2TJlFuEHYzCz-5" target="cHNkLDPj2TJlFuEHYzCz-60">
          <mxGeometry relative="1" as="geometry">
            <mxPoint x="394" y="180" as="targetPoint" />
            <Array as="points">
              <mxPoint x="140" y="140" />
              <mxPoint x="434" y="140" />
            </Array>
          </mxGeometry>
        </mxCell>
        <mxCell id="cHNkLDPj2TJlFuEHYzCz-42" style="edgeStyle=orthogonalEdgeStyle;rounded=0;orthogonalLoop=1;jettySize=auto;html=1;exitX=0;exitY=0;exitDx=20;exitDy=70;exitPerimeter=0;entryX=0.5;entryY=1;entryDx=0;entryDy=0;fillColor=#f5f5f5;strokeColor=#666666;" edge="1" parent="1" source="cHNkLDPj2TJlFuEHYzCz-5" target="cHNkLDPj2TJlFuEHYzCz-50">
          <mxGeometry relative="1" as="geometry">
            <mxPoint x="394" y="350" as="targetPoint" />
            <Array as="points">
              <mxPoint x="140" y="380" />
              <mxPoint x="434" y="380" />
            </Array>
          </mxGeometry>
        </mxCell>
        <mxCell id="cHNkLDPj2TJlFuEHYzCz-5" value="" style="shape=cube;whiteSpace=wrap;html=1;boundedLbl=1;backgroundOutline=1;darkOpacity=0.05;darkOpacity2=0.1;fillColor=#dae8fc;strokeColor=#6c8ebf;" vertex="1" parent="1">
          <mxGeometry x="120" y="220" width="30" height="70" as="geometry" />
        </mxCell>
        <mxCell id="cHNkLDPj2TJlFuEHYzCz-38" style="edgeStyle=orthogonalEdgeStyle;rounded=0;orthogonalLoop=1;jettySize=auto;html=1;exitX=0;exitY=0;exitDx=20;exitDy=10;exitPerimeter=0;entryX=0.5;entryY=0;entryDx=0;entryDy=0;fillColor=#ffe6cc;strokeColor=#d79b00;" edge="1" parent="1" source="cHNkLDPj2TJlFuEHYzCz-6" target="cHNkLDPj2TJlFuEHYzCz-58">
          <mxGeometry relative="1" as="geometry">
            <mxPoint x="490" y="180" as="targetPoint" />
            <Array as="points">
              <mxPoint x="170" y="130" />
              <mxPoint x="550" y="130" />
            </Array>
          </mxGeometry>
        </mxCell>
        <mxCell id="cHNkLDPj2TJlFuEHYzCz-43" style="edgeStyle=orthogonalEdgeStyle;rounded=0;orthogonalLoop=1;jettySize=auto;html=1;exitX=0;exitY=0;exitDx=20;exitDy=60;exitPerimeter=0;entryX=0.5;entryY=1;entryDx=0;entryDy=0;fillColor=#f5f5f5;strokeColor=#666666;" edge="1" parent="1" source="cHNkLDPj2TJlFuEHYzCz-6" target="cHNkLDPj2TJlFuEHYzCz-51">
          <mxGeometry relative="1" as="geometry">
            <mxPoint x="490" y="350" as="targetPoint" />
            <Array as="points">
              <mxPoint x="170" y="390" />
              <mxPoint x="550" y="390" />
            </Array>
          </mxGeometry>
        </mxCell>
        <mxCell id="cHNkLDPj2TJlFuEHYzCz-6" value="" style="shape=cube;whiteSpace=wrap;html=1;boundedLbl=1;backgroundOutline=1;darkOpacity=0.05;darkOpacity2=0.1;" vertex="1" parent="1">
          <mxGeometry x="150" y="230" width="30" height="60" as="geometry" />
        </mxCell>
        <mxCell id="cHNkLDPj2TJlFuEHYzCz-39" style="edgeStyle=orthogonalEdgeStyle;rounded=0;orthogonalLoop=1;jettySize=auto;html=1;exitX=0;exitY=0;exitDx=20;exitDy=10;exitPerimeter=0;fillColor=#ffe6cc;strokeColor=#d79b00;entryX=0.5;entryY=0;entryDx=0;entryDy=0;" edge="1" parent="1" source="cHNkLDPj2TJlFuEHYzCz-7" target="cHNkLDPj2TJlFuEHYzCz-61">
          <mxGeometry relative="1" as="geometry">
            <mxPoint x="660" y="180" as="targetPoint" />
            <Array as="points">
              <mxPoint x="200" y="120" />
              <mxPoint x="671" y="120" />
            </Array>
          </mxGeometry>
        </mxCell>
        <mxCell id="cHNkLDPj2TJlFuEHYzCz-44" style="edgeStyle=orthogonalEdgeStyle;rounded=0;orthogonalLoop=1;jettySize=auto;html=1;exitX=0;exitY=0;exitDx=20;exitDy=50;exitPerimeter=0;entryX=0.5;entryY=1;entryDx=0;entryDy=0;fillColor=#f5f5f5;strokeColor=#666666;" edge="1" parent="1" source="cHNkLDPj2TJlFuEHYzCz-7" target="cHNkLDPj2TJlFuEHYzCz-32">
          <mxGeometry relative="1" as="geometry">
            <Array as="points">
              <mxPoint x="200" y="400" />
              <mxPoint x="672" y="400" />
            </Array>
          </mxGeometry>
        </mxCell>
        <mxCell id="cHNkLDPj2TJlFuEHYzCz-7" value="" style="shape=cube;whiteSpace=wrap;html=1;boundedLbl=1;backgroundOutline=1;darkOpacity=0.05;darkOpacity2=0.1;fillColor=#dae8fc;strokeColor=#6c8ebf;" vertex="1" parent="1">
          <mxGeometry x="180" y="240" width="30" height="50" as="geometry" />
        </mxCell>
        <mxCell id="cHNkLDPj2TJlFuEHYzCz-40" style="edgeStyle=orthogonalEdgeStyle;rounded=0;orthogonalLoop=1;jettySize=auto;html=1;exitX=0;exitY=0;exitDx=20;exitDy=10;exitPerimeter=0;fillColor=#ffe6cc;strokeColor=#d79b00;entryX=0.5;entryY=0;entryDx=0;entryDy=0;" edge="1" parent="1" source="cHNkLDPj2TJlFuEHYzCz-8" target="cHNkLDPj2TJlFuEHYzCz-62">
          <mxGeometry relative="1" as="geometry">
            <mxPoint x="770" y="180" as="targetPoint" />
            <Array as="points">
              <mxPoint x="230" y="100" />
              <mxPoint x="791" y="100" />
            </Array>
          </mxGeometry>
        </mxCell>
        <mxCell id="cHNkLDPj2TJlFuEHYzCz-45" style="edgeStyle=orthogonalEdgeStyle;rounded=0;orthogonalLoop=1;jettySize=auto;html=1;exitX=0;exitY=0;exitDx=20;exitDy=40;exitPerimeter=0;entryX=0.5;entryY=1;entryDx=0;entryDy=0;fillColor=#f5f5f5;strokeColor=#666666;" edge="1" parent="1" source="cHNkLDPj2TJlFuEHYzCz-8" target="cHNkLDPj2TJlFuEHYzCz-34">
          <mxGeometry relative="1" as="geometry">
            <Array as="points">
              <mxPoint x="230" y="410" />
              <mxPoint x="795" y="410" />
            </Array>
          </mxGeometry>
        </mxCell>
        <mxCell id="cHNkLDPj2TJlFuEHYzCz-8" value="" style="shape=cube;whiteSpace=wrap;html=1;boundedLbl=1;backgroundOutline=1;darkOpacity=0.05;darkOpacity2=0.1;fillColor=#dae8fc;strokeColor=#6c8ebf;" vertex="1" parent="1">
          <mxGeometry x="210" y="250" width="30" height="40" as="geometry" />
        </mxCell>
        <mxCell id="cHNkLDPj2TJlFuEHYzCz-12" value="" style="edgeStyle=orthogonalEdgeStyle;rounded=0;orthogonalLoop=1;jettySize=auto;html=1;startArrow=none;" edge="1" parent="1" source="cHNkLDPj2TJlFuEHYzCz-60">
          <mxGeometry relative="1" as="geometry">
            <mxPoint x="414" y="195" as="sourcePoint" />
            <mxPoint x="470" y="195" as="targetPoint" />
          </mxGeometry>
        </mxCell>
        <mxCell id="cHNkLDPj2TJlFuEHYzCz-131" style="edgeStyle=orthogonalEdgeStyle;rounded=0;orthogonalLoop=1;jettySize=auto;html=1;exitX=1;exitY=0.5;exitDx=0;exitDy=0;entryX=0;entryY=0.5;entryDx=0;entryDy=0;" edge="1" parent="1" source="cHNkLDPj2TJlFuEHYzCz-32" target="cHNkLDPj2TJlFuEHYzCz-130">
          <mxGeometry relative="1" as="geometry" />
        </mxCell>
        <mxCell id="cHNkLDPj2TJlFuEHYzCz-32" value="" style="rounded=0;whiteSpace=wrap;html=1;fillColor=#f5f5f5;strokeColor=#666666;fontColor=#333333;" vertex="1" parent="1">
          <mxGeometry x="652" y="320" width="40" height="30" as="geometry" />
        </mxCell>
        <mxCell id="cHNkLDPj2TJlFuEHYzCz-34" value="" style="rounded=0;whiteSpace=wrap;html=1;fillColor=#f5f5f5;strokeColor=#666666;fontColor=#333333;" vertex="1" parent="1">
          <mxGeometry x="775" y="320" width="40" height="30" as="geometry" />
        </mxCell>
        <mxCell id="cHNkLDPj2TJlFuEHYzCz-46" value="" style="shape=cube;whiteSpace=wrap;html=1;boundedLbl=1;backgroundOutline=1;darkOpacity=0.05;darkOpacity2=0.1;" vertex="1" parent="1">
          <mxGeometry x="90" y="210" width="30" height="80" as="geometry" />
        </mxCell>
        <mxCell id="cHNkLDPj2TJlFuEHYzCz-47" value="" style="shape=cube;whiteSpace=wrap;html=1;boundedLbl=1;backgroundOutline=1;darkOpacity=0.05;darkOpacity2=0.1;fillColor=#dae8fc;strokeColor=#6c8ebf;" vertex="1" parent="1">
          <mxGeometry x="90" y="210" width="30" height="80" as="geometry" />
        </mxCell>
        <mxCell id="cHNkLDPj2TJlFuEHYzCz-48" value="" style="shape=cube;whiteSpace=wrap;html=1;boundedLbl=1;backgroundOutline=1;darkOpacity=0.05;darkOpacity2=0.1;fillColor=#dae8fc;strokeColor=#6c8ebf;" vertex="1" parent="1">
          <mxGeometry x="150" y="230" width="30" height="60" as="geometry" />
        </mxCell>
        <mxCell id="cHNkLDPj2TJlFuEHYzCz-83" style="edgeStyle=orthogonalEdgeStyle;rounded=0;orthogonalLoop=1;jettySize=auto;html=1;exitX=1;exitY=0.5;exitDx=0;exitDy=0;entryX=0;entryY=0;entryDx=5;entryDy=45;entryPerimeter=0;" edge="1" parent="1" source="cHNkLDPj2TJlFuEHYzCz-49" target="cHNkLDPj2TJlFuEHYzCz-67">
          <mxGeometry relative="1" as="geometry" />
        </mxCell>
        <mxCell id="cHNkLDPj2TJlFuEHYzCz-86" style="edgeStyle=orthogonalEdgeStyle;rounded=0;orthogonalLoop=1;jettySize=auto;html=1;exitX=1;exitY=0.5;exitDx=0;exitDy=0;entryX=0;entryY=0.5;entryDx=0;entryDy=0;" edge="1" parent="1" source="cHNkLDPj2TJlFuEHYzCz-49" target="cHNkLDPj2TJlFuEHYzCz-85">
          <mxGeometry relative="1" as="geometry" />
        </mxCell>
        <mxCell id="cHNkLDPj2TJlFuEHYzCz-49" value="" style="rounded=0;whiteSpace=wrap;html=1;fillColor=#f5f5f5;strokeColor=#666666;fontColor=#333333;" vertex="1" parent="1">
          <mxGeometry x="280" y="320" width="40" height="30" as="geometry" />
        </mxCell>
        <mxCell id="cHNkLDPj2TJlFuEHYzCz-96" style="edgeStyle=orthogonalEdgeStyle;rounded=0;orthogonalLoop=1;jettySize=auto;html=1;exitX=1;exitY=0.5;exitDx=0;exitDy=0;entryX=0;entryY=0;entryDx=10;entryDy=50;entryPerimeter=0;" edge="1" parent="1" source="cHNkLDPj2TJlFuEHYzCz-50" target="cHNkLDPj2TJlFuEHYzCz-95">
          <mxGeometry relative="1" as="geometry" />
        </mxCell>
        <mxCell id="cHNkLDPj2TJlFuEHYzCz-98" style="edgeStyle=orthogonalEdgeStyle;rounded=0;orthogonalLoop=1;jettySize=auto;html=1;exitX=1;exitY=0.5;exitDx=0;exitDy=0;entryX=0;entryY=0.5;entryDx=0;entryDy=0;" edge="1" parent="1" source="cHNkLDPj2TJlFuEHYzCz-50" target="cHNkLDPj2TJlFuEHYzCz-93">
          <mxGeometry relative="1" as="geometry" />
        </mxCell>
        <mxCell id="cHNkLDPj2TJlFuEHYzCz-50" value="" style="rounded=0;whiteSpace=wrap;html=1;fillColor=#f5f5f5;strokeColor=#666666;fontColor=#333333;" vertex="1" parent="1">
          <mxGeometry x="414" y="320" width="40" height="30" as="geometry" />
        </mxCell>
        <mxCell id="cHNkLDPj2TJlFuEHYzCz-107" style="edgeStyle=orthogonalEdgeStyle;rounded=0;orthogonalLoop=1;jettySize=auto;html=1;exitX=1;exitY=0.5;exitDx=0;exitDy=0;entryX=0;entryY=0.5;entryDx=0;entryDy=0;" edge="1" parent="1" source="cHNkLDPj2TJlFuEHYzCz-51" target="cHNkLDPj2TJlFuEHYzCz-105">
          <mxGeometry relative="1" as="geometry" />
        </mxCell>
        <mxCell id="cHNkLDPj2TJlFuEHYzCz-108" style="edgeStyle=orthogonalEdgeStyle;rounded=0;orthogonalLoop=1;jettySize=auto;html=1;exitX=1;exitY=0.5;exitDx=0;exitDy=0;entryX=0;entryY=0;entryDx=10;entryDy=50;entryPerimeter=0;" edge="1" parent="1" source="cHNkLDPj2TJlFuEHYzCz-51" target="cHNkLDPj2TJlFuEHYzCz-106">
          <mxGeometry relative="1" as="geometry" />
        </mxCell>
        <mxCell id="cHNkLDPj2TJlFuEHYzCz-51" value="" style="rounded=0;whiteSpace=wrap;html=1;fillColor=#f5f5f5;strokeColor=#666666;fontColor=#333333;" vertex="1" parent="1">
          <mxGeometry x="530" y="320" width="40" height="30" as="geometry" />
        </mxCell>
        <mxCell id="cHNkLDPj2TJlFuEHYzCz-53" value="" style="rounded=0;whiteSpace=wrap;html=1;" vertex="1" parent="1">
          <mxGeometry x="280" y="180" width="40" height="30" as="geometry" />
        </mxCell>
        <mxCell id="cHNkLDPj2TJlFuEHYzCz-56" value="" style="rounded=0;whiteSpace=wrap;html=1;" vertex="1" parent="1">
          <mxGeometry x="280" y="180" width="40" height="30" as="geometry" />
        </mxCell>
        <mxCell id="cHNkLDPj2TJlFuEHYzCz-111" style="edgeStyle=orthogonalEdgeStyle;rounded=0;orthogonalLoop=1;jettySize=auto;html=1;exitX=1;exitY=0.5;exitDx=0;exitDy=0;entryX=0;entryY=0.5;entryDx=0;entryDy=0;" edge="1" parent="1" source="cHNkLDPj2TJlFuEHYzCz-58" target="cHNkLDPj2TJlFuEHYzCz-103">
          <mxGeometry relative="1" as="geometry" />
        </mxCell>
        <mxCell id="cHNkLDPj2TJlFuEHYzCz-58" value="" style="rounded=0;whiteSpace=wrap;html=1;" vertex="1" parent="1">
          <mxGeometry x="530" y="180" width="40" height="30" as="geometry" />
        </mxCell>
        <mxCell id="cHNkLDPj2TJlFuEHYzCz-59" value="" style="rounded=0;whiteSpace=wrap;html=1;" vertex="1" parent="1">
          <mxGeometry x="280" y="180" width="40" height="30" as="geometry" />
        </mxCell>
        <mxCell id="cHNkLDPj2TJlFuEHYzCz-127" style="edgeStyle=orthogonalEdgeStyle;rounded=0;orthogonalLoop=1;jettySize=auto;html=1;exitX=1;exitY=0.5;exitDx=0;exitDy=0;entryX=0;entryY=0.5;entryDx=0;entryDy=0;" edge="1" parent="1" source="cHNkLDPj2TJlFuEHYzCz-61" target="cHNkLDPj2TJlFuEHYzCz-126">
          <mxGeometry relative="1" as="geometry" />
        </mxCell>
        <mxCell id="cHNkLDPj2TJlFuEHYzCz-61" value="" style="rounded=0;whiteSpace=wrap;html=1;" vertex="1" parent="1">
          <mxGeometry x="651" y="180" width="40" height="30" as="geometry" />
        </mxCell>
        <mxCell id="cHNkLDPj2TJlFuEHYzCz-138" style="edgeStyle=orthogonalEdgeStyle;rounded=0;orthogonalLoop=1;jettySize=auto;html=1;exitX=1;exitY=0.5;exitDx=0;exitDy=0;" edge="1" parent="1" source="cHNkLDPj2TJlFuEHYzCz-62">
          <mxGeometry relative="1" as="geometry">
            <mxPoint x="840.0000000000002" y="195" as="targetPoint" />
          </mxGeometry>
        </mxCell>
        <mxCell id="cHNkLDPj2TJlFuEHYzCz-62" value="" style="rounded=0;whiteSpace=wrap;html=1;fillColor=#ffe6cc;strokeColor=#d79b00;" vertex="1" parent="1">
          <mxGeometry x="771" y="180" width="40" height="30" as="geometry" />
        </mxCell>
        <mxCell id="cHNkLDPj2TJlFuEHYzCz-73" style="edgeStyle=orthogonalEdgeStyle;rounded=0;orthogonalLoop=1;jettySize=auto;html=1;exitX=1;exitY=0.5;exitDx=0;exitDy=0;entryX=0;entryY=0.5;entryDx=0;entryDy=0;" edge="1" parent="1" target="cHNkLDPj2TJlFuEHYzCz-71">
          <mxGeometry relative="1" as="geometry">
            <mxPoint x="320" y="195" as="sourcePoint" />
          </mxGeometry>
        </mxCell>
        <mxCell id="cHNkLDPj2TJlFuEHYzCz-82" style="edgeStyle=orthogonalEdgeStyle;rounded=0;orthogonalLoop=1;jettySize=auto;html=1;exitX=0;exitY=0;exitDx=10;exitDy=0;exitPerimeter=0;entryX=0.5;entryY=1;entryDx=0;entryDy=0;" edge="1" parent="1" source="cHNkLDPj2TJlFuEHYzCz-67" target="cHNkLDPj2TJlFuEHYzCz-71">
          <mxGeometry relative="1" as="geometry" />
        </mxCell>
        <mxCell id="cHNkLDPj2TJlFuEHYzCz-87" style="edgeStyle=orthogonalEdgeStyle;rounded=0;orthogonalLoop=1;jettySize=auto;html=1;exitX=0;exitY=0;exitDx=30;exitDy=30;exitPerimeter=0;entryX=0.5;entryY=0;entryDx=0;entryDy=0;" edge="1" parent="1" source="cHNkLDPj2TJlFuEHYzCz-67" target="cHNkLDPj2TJlFuEHYzCz-85">
          <mxGeometry relative="1" as="geometry">
            <Array as="points">
              <mxPoint x="386" y="280" />
            </Array>
          </mxGeometry>
        </mxCell>
        <mxCell id="cHNkLDPj2TJlFuEHYzCz-67" value="" style="shape=cube;whiteSpace=wrap;html=1;boundedLbl=1;backgroundOutline=1;darkOpacity=0.05;darkOpacity2=0.1;size=10;fillColor=#d5e8d4;strokeColor=#82b366;" vertex="1" parent="1">
          <mxGeometry x="346" y="250" width="30" height="50" as="geometry" />
        </mxCell>
        <mxCell id="cHNkLDPj2TJlFuEHYzCz-74" style="edgeStyle=orthogonalEdgeStyle;rounded=0;orthogonalLoop=1;jettySize=auto;html=1;exitX=1;exitY=0.5;exitDx=0;exitDy=0;entryX=0;entryY=0.5;entryDx=0;entryDy=0;" edge="1" parent="1" source="cHNkLDPj2TJlFuEHYzCz-71">
          <mxGeometry relative="1" as="geometry">
            <mxPoint x="412" y="195" as="targetPoint" />
          </mxGeometry>
        </mxCell>
        <mxCell id="cHNkLDPj2TJlFuEHYzCz-71" value="+" style="ellipse;whiteSpace=wrap;html=1;aspect=fixed;" vertex="1" parent="1">
          <mxGeometry x="345" y="185" width="20" height="20" as="geometry" />
        </mxCell>
        <mxCell id="cHNkLDPj2TJlFuEHYzCz-60" value="" style="rounded=0;whiteSpace=wrap;html=1;" vertex="1" parent="1">
          <mxGeometry x="414" y="180" width="40" height="30" as="geometry" />
        </mxCell>
        <mxCell id="cHNkLDPj2TJlFuEHYzCz-88" style="edgeStyle=orthogonalEdgeStyle;rounded=0;orthogonalLoop=1;jettySize=auto;html=1;exitX=1;exitY=0.5;exitDx=0;exitDy=0;entryX=0;entryY=0.5;entryDx=0;entryDy=0;" edge="1" parent="1" source="cHNkLDPj2TJlFuEHYzCz-85" target="cHNkLDPj2TJlFuEHYzCz-50">
          <mxGeometry relative="1" as="geometry" />
        </mxCell>
        <mxCell id="cHNkLDPj2TJlFuEHYzCz-85" value="+" style="ellipse;whiteSpace=wrap;html=1;aspect=fixed;" vertex="1" parent="1">
          <mxGeometry x="376" y="325" width="20" height="20" as="geometry" />
        </mxCell>
        <mxCell id="cHNkLDPj2TJlFuEHYzCz-90" value="" style="endArrow=none;html=1;" edge="1" parent="1">
          <mxGeometry width="50" height="50" relative="1" as="geometry">
            <mxPoint x="390" y="266" as="sourcePoint" />
            <mxPoint x="390" y="196" as="targetPoint" />
          </mxGeometry>
        </mxCell>
        <mxCell id="cHNkLDPj2TJlFuEHYzCz-91" value="" style="endArrow=classic;html=1;" edge="1" parent="1">
          <mxGeometry width="50" height="50" relative="1" as="geometry">
            <mxPoint x="391" y="265" as="sourcePoint" />
            <mxPoint x="371" y="265" as="targetPoint" />
          </mxGeometry>
        </mxCell>
        <mxCell id="cHNkLDPj2TJlFuEHYzCz-99" style="edgeStyle=orthogonalEdgeStyle;rounded=0;orthogonalLoop=1;jettySize=auto;html=1;exitX=1;exitY=0.5;exitDx=0;exitDy=0;entryX=0;entryY=0.5;entryDx=0;entryDy=0;" edge="1" parent="1" source="cHNkLDPj2TJlFuEHYzCz-92" target="cHNkLDPj2TJlFuEHYzCz-58">
          <mxGeometry relative="1" as="geometry" />
        </mxCell>
        <mxCell id="cHNkLDPj2TJlFuEHYzCz-92" value="+" style="ellipse;whiteSpace=wrap;html=1;aspect=fixed;" vertex="1" parent="1">
          <mxGeometry x="470" y="185" width="20" height="20" as="geometry" />
        </mxCell>
        <mxCell id="cHNkLDPj2TJlFuEHYzCz-104" style="edgeStyle=orthogonalEdgeStyle;rounded=0;orthogonalLoop=1;jettySize=auto;html=1;exitX=1;exitY=0.5;exitDx=0;exitDy=0;entryX=0;entryY=0.5;entryDx=0;entryDy=0;" edge="1" parent="1" source="cHNkLDPj2TJlFuEHYzCz-93" target="cHNkLDPj2TJlFuEHYzCz-51">
          <mxGeometry relative="1" as="geometry" />
        </mxCell>
        <mxCell id="cHNkLDPj2TJlFuEHYzCz-93" value="+" style="ellipse;whiteSpace=wrap;html=1;aspect=fixed;" vertex="1" parent="1">
          <mxGeometry x="498" y="325" width="20" height="20" as="geometry" />
        </mxCell>
        <mxCell id="cHNkLDPj2TJlFuEHYzCz-97" style="edgeStyle=orthogonalEdgeStyle;rounded=0;orthogonalLoop=1;jettySize=auto;html=1;exitX=0;exitY=0;exitDx=10;exitDy=0;exitPerimeter=0;entryX=0.5;entryY=1;entryDx=0;entryDy=0;" edge="1" parent="1" source="cHNkLDPj2TJlFuEHYzCz-95" target="cHNkLDPj2TJlFuEHYzCz-92">
          <mxGeometry relative="1" as="geometry" />
        </mxCell>
        <mxCell id="cHNkLDPj2TJlFuEHYzCz-95" value="" style="shape=cube;whiteSpace=wrap;html=1;boundedLbl=1;backgroundOutline=1;darkOpacity=0.05;darkOpacity2=0.1;size=10;fillColor=#d5e8d4;strokeColor=#82b366;" vertex="1" parent="1">
          <mxGeometry x="470" y="250" width="30" height="50" as="geometry" />
        </mxCell>
        <mxCell id="cHNkLDPj2TJlFuEHYzCz-100" value="" style="endArrow=none;html=1;" edge="1" parent="1">
          <mxGeometry width="50" height="50" relative="1" as="geometry">
            <mxPoint x="518" y="266.0000000000001" as="sourcePoint" />
            <mxPoint x="518" y="196" as="targetPoint" />
          </mxGeometry>
        </mxCell>
        <mxCell id="cHNkLDPj2TJlFuEHYzCz-101" value="" style="endArrow=classic;html=1;" edge="1" parent="1">
          <mxGeometry width="50" height="50" relative="1" as="geometry">
            <mxPoint x="518" y="267" as="sourcePoint" />
            <mxPoint x="498" y="267" as="targetPoint" />
          </mxGeometry>
        </mxCell>
        <mxCell id="cHNkLDPj2TJlFuEHYzCz-102" style="edgeStyle=orthogonalEdgeStyle;rounded=0;orthogonalLoop=1;jettySize=auto;html=1;exitX=0;exitY=0;exitDx=30;exitDy=30;exitPerimeter=0;entryX=0.5;entryY=0;entryDx=0;entryDy=0;" edge="1" parent="1">
          <mxGeometry relative="1" as="geometry">
            <mxPoint x="500" y="280" as="sourcePoint" />
            <mxPoint x="510" y="325" as="targetPoint" />
            <Array as="points">
              <mxPoint x="510" y="280" />
            </Array>
          </mxGeometry>
        </mxCell>
        <mxCell id="cHNkLDPj2TJlFuEHYzCz-112" style="edgeStyle=orthogonalEdgeStyle;rounded=0;orthogonalLoop=1;jettySize=auto;html=1;exitX=1;exitY=0.5;exitDx=0;exitDy=0;" edge="1" parent="1" source="cHNkLDPj2TJlFuEHYzCz-103">
          <mxGeometry relative="1" as="geometry">
            <mxPoint x="650" y="195" as="targetPoint" />
          </mxGeometry>
        </mxCell>
        <mxCell id="cHNkLDPj2TJlFuEHYzCz-103" value="+" style="ellipse;whiteSpace=wrap;html=1;aspect=fixed;" vertex="1" parent="1">
          <mxGeometry x="585" y="185" width="20" height="20" as="geometry" />
        </mxCell>
        <mxCell id="cHNkLDPj2TJlFuEHYzCz-113" style="edgeStyle=orthogonalEdgeStyle;rounded=0;orthogonalLoop=1;jettySize=auto;html=1;exitX=1;exitY=0.5;exitDx=0;exitDy=0;entryX=0;entryY=0.5;entryDx=0;entryDy=0;" edge="1" parent="1" source="cHNkLDPj2TJlFuEHYzCz-105" target="cHNkLDPj2TJlFuEHYzCz-32">
          <mxGeometry relative="1" as="geometry" />
        </mxCell>
        <mxCell id="cHNkLDPj2TJlFuEHYzCz-105" value="+" style="ellipse;whiteSpace=wrap;html=1;aspect=fixed;" vertex="1" parent="1">
          <mxGeometry x="610" y="325" width="20" height="20" as="geometry" />
        </mxCell>
        <mxCell id="cHNkLDPj2TJlFuEHYzCz-110" style="edgeStyle=orthogonalEdgeStyle;rounded=0;orthogonalLoop=1;jettySize=auto;html=1;exitX=0;exitY=0;exitDx=10;exitDy=0;exitPerimeter=0;entryX=0.5;entryY=1;entryDx=0;entryDy=0;" edge="1" parent="1" source="cHNkLDPj2TJlFuEHYzCz-106" target="cHNkLDPj2TJlFuEHYzCz-103">
          <mxGeometry relative="1" as="geometry" />
        </mxCell>
        <mxCell id="cHNkLDPj2TJlFuEHYzCz-116" style="edgeStyle=orthogonalEdgeStyle;rounded=0;orthogonalLoop=1;jettySize=auto;html=1;exitX=0;exitY=0;exitDx=30;exitDy=30;exitPerimeter=0;entryX=0.5;entryY=0;entryDx=0;entryDy=0;" edge="1" parent="1" source="cHNkLDPj2TJlFuEHYzCz-106" target="cHNkLDPj2TJlFuEHYzCz-105">
          <mxGeometry relative="1" as="geometry">
            <Array as="points">
              <mxPoint x="620" y="280" />
            </Array>
          </mxGeometry>
        </mxCell>
        <mxCell id="cHNkLDPj2TJlFuEHYzCz-106" value="" style="shape=cube;whiteSpace=wrap;html=1;boundedLbl=1;backgroundOutline=1;darkOpacity=0.05;darkOpacity2=0.1;size=10;fillColor=#d5e8d4;strokeColor=#82b366;" vertex="1" parent="1">
          <mxGeometry x="585" y="250" width="30" height="50" as="geometry" />
        </mxCell>
        <mxCell id="cHNkLDPj2TJlFuEHYzCz-114" value="" style="endArrow=none;html=1;" edge="1" parent="1">
          <mxGeometry width="50" height="50" relative="1" as="geometry">
            <mxPoint x="634" y="266.0000000000001" as="sourcePoint" />
            <mxPoint x="634" y="196" as="targetPoint" />
          </mxGeometry>
        </mxCell>
        <mxCell id="cHNkLDPj2TJlFuEHYzCz-115" value="" style="endArrow=classic;html=1;" edge="1" parent="1">
          <mxGeometry width="50" height="50" relative="1" as="geometry">
            <mxPoint x="634" y="266.9999999999999" as="sourcePoint" />
            <mxPoint x="614" y="266.9999999999999" as="targetPoint" />
          </mxGeometry>
        </mxCell>
        <mxCell id="cHNkLDPj2TJlFuEHYzCz-121" style="edgeStyle=orthogonalEdgeStyle;rounded=0;orthogonalLoop=1;jettySize=auto;html=1;exitX=0;exitY=0;exitDx=10;exitDy=0;exitPerimeter=0;entryX=0.5;entryY=1;entryDx=0;entryDy=0;" edge="1" parent="1">
          <mxGeometry relative="1" as="geometry">
            <mxPoint x="594.58" y="250" as="sourcePoint" />
            <mxPoint x="594.58" y="205" as="targetPoint" />
          </mxGeometry>
        </mxCell>
        <mxCell id="cHNkLDPj2TJlFuEHYzCz-122" style="edgeStyle=orthogonalEdgeStyle;rounded=0;orthogonalLoop=1;jettySize=auto;html=1;exitX=0;exitY=0;exitDx=10;exitDy=0;exitPerimeter=0;entryX=0.5;entryY=1;entryDx=0;entryDy=0;" edge="1" parent="1">
          <mxGeometry relative="1" as="geometry">
            <mxPoint x="594.5799999999999" y="250" as="sourcePoint" />
            <mxPoint x="594.5799999999999" y="205" as="targetPoint" />
          </mxGeometry>
        </mxCell>
        <mxCell id="cHNkLDPj2TJlFuEHYzCz-133" style="edgeStyle=orthogonalEdgeStyle;rounded=0;orthogonalLoop=1;jettySize=auto;html=1;exitX=0;exitY=0;exitDx=30;exitDy=30;exitPerimeter=0;entryX=0.5;entryY=0;entryDx=0;entryDy=0;" edge="1" parent="1" source="cHNkLDPj2TJlFuEHYzCz-123" target="cHNkLDPj2TJlFuEHYzCz-130">
          <mxGeometry relative="1" as="geometry">
            <Array as="points">
              <mxPoint x="750" y="281" />
            </Array>
          </mxGeometry>
        </mxCell>
        <mxCell id="cHNkLDPj2TJlFuEHYzCz-123" value="" style="shape=cube;whiteSpace=wrap;html=1;boundedLbl=1;backgroundOutline=1;darkOpacity=0.05;darkOpacity2=0.1;size=10;fillColor=#d5e8d4;strokeColor=#82b366;" vertex="1" parent="1">
          <mxGeometry x="710" y="251" width="30" height="50" as="geometry" />
        </mxCell>
        <mxCell id="cHNkLDPj2TJlFuEHYzCz-124" value="" style="endArrow=none;html=1;" edge="1" parent="1">
          <mxGeometry width="50" height="50" relative="1" as="geometry">
            <mxPoint x="759" y="266.0000000000001" as="sourcePoint" />
            <mxPoint x="759" y="196" as="targetPoint" />
          </mxGeometry>
        </mxCell>
        <mxCell id="cHNkLDPj2TJlFuEHYzCz-125" style="edgeStyle=orthogonalEdgeStyle;rounded=0;orthogonalLoop=1;jettySize=auto;html=1;exitX=0;exitY=0;exitDx=10;exitDy=0;exitPerimeter=0;entryX=0.5;entryY=1;entryDx=0;entryDy=0;" edge="1" parent="1">
          <mxGeometry relative="1" as="geometry">
            <mxPoint x="719.5799999999999" y="250" as="sourcePoint" />
            <mxPoint x="719.5799999999999" y="205" as="targetPoint" />
          </mxGeometry>
        </mxCell>
        <mxCell id="cHNkLDPj2TJlFuEHYzCz-128" style="edgeStyle=orthogonalEdgeStyle;rounded=0;orthogonalLoop=1;jettySize=auto;html=1;exitX=1;exitY=0.5;exitDx=0;exitDy=0;entryX=0;entryY=0.5;entryDx=0;entryDy=0;" edge="1" parent="1" source="cHNkLDPj2TJlFuEHYzCz-126" target="cHNkLDPj2TJlFuEHYzCz-62">
          <mxGeometry relative="1" as="geometry" />
        </mxCell>
        <mxCell id="cHNkLDPj2TJlFuEHYzCz-126" value="+" style="ellipse;whiteSpace=wrap;html=1;aspect=fixed;" vertex="1" parent="1">
          <mxGeometry x="710" y="185" width="20" height="20" as="geometry" />
        </mxCell>
        <mxCell id="cHNkLDPj2TJlFuEHYzCz-129" value="" style="endArrow=classic;html=1;" edge="1" parent="1">
          <mxGeometry width="50" height="50" relative="1" as="geometry">
            <mxPoint x="760" y="266.57999999999987" as="sourcePoint" />
            <mxPoint x="740" y="266.57999999999987" as="targetPoint" />
          </mxGeometry>
        </mxCell>
        <mxCell id="cHNkLDPj2TJlFuEHYzCz-132" style="edgeStyle=orthogonalEdgeStyle;rounded=0;orthogonalLoop=1;jettySize=auto;html=1;exitX=1;exitY=0.5;exitDx=0;exitDy=0;entryX=0;entryY=0.5;entryDx=0;entryDy=0;" edge="1" parent="1" source="cHNkLDPj2TJlFuEHYzCz-130" target="cHNkLDPj2TJlFuEHYzCz-34">
          <mxGeometry relative="1" as="geometry" />
        </mxCell>
        <mxCell id="cHNkLDPj2TJlFuEHYzCz-130" value="+" style="ellipse;whiteSpace=wrap;html=1;aspect=fixed;" vertex="1" parent="1">
          <mxGeometry x="740" y="325" width="20" height="20" as="geometry" />
        </mxCell>
        <mxCell id="cHNkLDPj2TJlFuEHYzCz-134" value="" style="rounded=0;whiteSpace=wrap;html=1;fillColor=#ffe6cc;strokeColor=#d79b00;" vertex="1" parent="1">
          <mxGeometry x="280" y="180" width="40" height="30" as="geometry" />
        </mxCell>
        <mxCell id="cHNkLDPj2TJlFuEHYzCz-135" value="" style="rounded=0;whiteSpace=wrap;html=1;fillColor=#ffe6cc;strokeColor=#d79b00;" vertex="1" parent="1">
          <mxGeometry x="414" y="180" width="40" height="30" as="geometry" />
        </mxCell>
        <mxCell id="cHNkLDPj2TJlFuEHYzCz-136" value="" style="rounded=0;whiteSpace=wrap;html=1;fillColor=#ffe6cc;strokeColor=#d79b00;" vertex="1" parent="1">
          <mxGeometry x="530" y="180" width="40" height="30" as="geometry" />
        </mxCell>
        <mxCell id="cHNkLDPj2TJlFuEHYzCz-137" value="" style="rounded=0;whiteSpace=wrap;html=1;fillColor=#ffe6cc;strokeColor=#d79b00;" vertex="1" parent="1">
          <mxGeometry x="651" y="180" width="40" height="30" as="geometry" />
        </mxCell>
        <mxCell id="cHNkLDPj2TJlFuEHYzCz-139" value="Predicted" style="text;html=1;resizable=0;autosize=1;align=center;verticalAlign=middle;points=[];fillColor=none;strokeColor=none;rounded=0;" vertex="1" parent="1">
          <mxGeometry x="840" y="185" width="70" height="20" as="geometry" />
        </mxCell>
      </root>
    </mxGraphModel>
  </diagram>
</mxfile>
